<?xml version="1.0" encoding="utf-8"?>
<!-- Generator: Adobe Illustrator 22.0.1, SVG Export Plug-In . SVG Version: 6.00 Build 0)  -->
<svg version="1.1" id="Layer_1" xmlns="http://www.w3.org/2000/svg" xmlns:xlink="http://www.w3.org/1999/xlink" x="0px" y="0px"
	 viewBox="0 0 307.2 99" style="enable-background:new 0 0 307.2 99;" xml:space="preserve">
<style type="text/css">
	.st0{fill:#585858;}
	.st1{fill:#00AEAC;}
	.st2{fill:#58595B;}
</style>
<g>
	<path class="st0" d="M112.2,95.6l-0.9-0.5c8.3-14.6,10.4-31.5,6-47.7c-4.4-16.2-14.9-29.7-29.5-37.9C73.3,1.1,56.4-1,40.2,3.5
		c-16,4.4-29.4,14.7-37.7,29.1l7.2,4.1l-0.5,0.9l-8.1-4.6l0.2-0.4C9.8,17.7,23.5,7,39.9,2.5C56.3-2,73.5,0.2,88.3,8.6
		c14.8,8.4,25.4,22.1,30,38.5C122.8,63.6,120.6,80.8,112.2,95.6z"/>
	<g>
		<path class="st1" d="M57.4,89.8h-0.5c-14.2,0-25.7-11.5-25.7-25.7c0-14.2,11.5-25.7,25.7-25.7h0.5v25.2h53.3
			C110.5,34,86.3,10,56.7,10c-29.8,0-54,24.2-54,54h-1c0-30.3,24.7-55,55-55c30.3,0,55,24.7,55,55v0.5H56.4V39.3
			C43,39.6,32.2,50.5,32.2,64c0,13.5,10.8,24.5,24.3,24.7v-7.9h1V89.8z"/>
		<path class="st1" d="M39.1,94.5c-16.8-9.7-22.6-31.3-12.9-48.1c4.7-8.2,12.3-14,21.4-16.4c9.1-2.4,18.6-1.2,26.7,3.5l-0.5,0.9
			c-7.9-4.6-17.2-5.8-26-3.4c-8.8,2.4-16.2,8-20.8,16c-9.4,16.4-3.8,37.3,12.5,46.8L39.1,94.5z"/>
		<path class="st1" d="M56.9,63.6"/>
		<path class="st1" d="M56.7,81.1c-1,0-2-0.1-3-0.3c-4.5-0.8-8.4-3.3-11.1-7c-5.4-7.7-3.6-18.4,4.2-23.9l0.6,0.8
			c-7.3,5.1-9,15.2-3.9,22.5c2.5,3.5,6.2,5.9,10.4,6.6c4.2,0.7,8.5-0.2,12.1-2.7l0.6,0.8C63.6,80,60.2,81.1,56.7,81.1z"/>
		<path class="st1" d="M18.2,86.8L18,86.4C5.6,65,13,37.6,34.3,25.3c21.4-12.3,48.8-5,61.1,16.4l-0.9,0.5
			c-12.1-20.9-38.9-28.1-59.8-16c-20.8,12-28,38.5-16.3,59.4l7.5-4.3l0.5,0.9L18.2,86.8z"/>
		<path class="st1" d="M4.1,65.8c0,1.1-0.9,2-2,2c-1.1,0-2-0.9-2-2c0-1.1,0.9-2,2-2C3.2,63.8,4.1,64.7,4.1,65.8z"/>
		<path class="st1" d="M42.9,94.9c0,1.1-0.9,2-2,2c-1.1,0-2-0.9-2-2c0-1.1,0.9-2,2-2C42,92.9,42.9,93.8,42.9,94.9z"/>
		<path class="st1" d="M69.6,76.3c0,1.1-0.9,2-2,2c-1.1,0-2-0.9-2-2c0-1.1,0.9-2,2-2C68.7,74.3,69.6,75.2,69.6,76.3z"/>
		<path class="st1" d="M50.6,49.2c0,1.1-0.9,2-2,2c-1.1,0-2-0.9-2-2c0-1.1,0.9-2,2-2C49.7,47.2,50.6,48.1,50.6,49.2z"/>
		<path class="st1" d="M77.5,35c0,1.1-0.9,2-2,2c-1.1,0-2-0.9-2-2c0-1.1,0.9-2,2-2C76.6,33,77.5,33.9,77.5,35z"/>
		<path class="st1" d="M97.9,43.4c0,1.1-0.9,2-2,2c-1.1,0-2-0.9-2-2c0-1.1,0.9-2,2-2C97,41.4,97.9,42.3,97.9,43.4z"/>
	</g>
	<path class="st2" d="M113,96.9c0,1.1-0.9,2-2,2c-1.1,0-2-0.9-2-2c0-1.1,0.9-2,2-2C112.1,94.9,113,95.8,113,96.9z"/>
</g>
<g>
	<path class="st0" d="M131.3,61.6h2.1v15.4h15.4V61.6h2.1v35.2h-2.1V79h-15.4v17.9h-2.1V61.6z"/>
	<path class="st1" d="M157.7,87.8c0,4.5,2.9,7.9,8,7.9c4.9,0,8.1-3.5,8.1-8c0-4.6-2.5-6.2-6.4-7.5l-4-1.4c-4.6-1.6-7.2-3.9-7.2-8.6
		c0-5.7,3.9-9.2,9.4-9.2c6.5,0,9.4,3.7,9.4,9.6h-2.1c0-4.7-2.2-7.9-7.2-7.9c-3.9,0-7.5,1.8-7.5,7.3c0,3.9,2.1,5.8,5.2,6.8l5.2,1.8
		c4.5,1.6,7.2,3.8,7.2,9c0,6.3-4.6,9.8-10.2,9.8c-8.1,0-10.1-5.7-10.1-9.1V86h2.1V87.8z"/>
	<path class="st1" d="M180.7,61.6H191c4.9,0,8.7,2.8,8.7,9.2c0,4.6-2.5,8.2-7.1,8.7v0.1c5.8,0.3,6.8,3.9,6.8,8.7v3.7
		c0,2,0.3,3.3,1.2,4.7h-2.4c-0.5-1-0.9-2.7-0.9-4.8v-3.6c0-5-1.4-7.9-7.1-7.9h-7.6v16.3h-2.1V61.6z M189.3,78.9c3.9,0,8.3-1.3,8.3-8
		c0-4.7-2.7-7.5-7-7.5h-7.9v15.5H189.3z"/>
	<path class="st0" d="M227.5,96.9h-4.3V66.1h-8.7v-3.8h21.6v3.8h-8.7V96.9z"/>
	<path class="st0" d="M239.3,62.4h17.8v3.8h-13.6V77h12.8v3.8h-12.8v12.4h14.2v3.8h-18.4V62.4z"/>
	<path class="st0" d="M282.9,85c-0.4,6.5-3,12.5-10.5,12.5c-9.8,0-11.1-9.2-11.1-17.9c0-8.7,1.6-17.9,11.1-17.9
		c7.1,0,10,4,10.2,10.7h-4.4c-0.1-3.9-1.4-7.3-5.8-7.3c-5.9,0-6.7,6.5-6.7,14.5c0,8,0.8,14.5,6.7,14.5c5.2,0,5.9-4.8,6-9H282.9z"/>
	<path class="st0" d="M307.2,96.9h-4.3V80.2h-11.8v16.6h-4.3V62.4h4.3v14.1h11.8V62.4h4.3V96.9z"/>
</g>
</svg>
